<svg viewBox="0 0 40 40" fill="none" xmlns="http://www.w3.org/2000/svg">
<g>
<path fill-rule="evenodd" clip-rule="evenodd" d="M20.3089 34.293C17.4874 34.293 16.1762 33.8793 13.8971 32.2246C12.4555 34.0861 7.89039 35.5409 7.69131 33.0519C7.69131 31.1835 7.27942 29.6046 6.81262 27.8809C6.25656 25.7574 5.625 23.3925 5.625 19.9659C5.625 11.7819 12.3113 5.625 20.2334 5.625C28.1554 5.625 34.3749 12.0853 34.3749 20.0417C34.4024 27.874 28.1073 34.2516 20.3089 34.293ZM20.4256 12.6989C16.5675 12.499 13.5607 15.181 12.8949 19.3867C12.3457 22.8685 13.3205 27.1087 14.1511 27.3294C14.5493 27.4259 15.5515 26.6123 16.1762 25.9849C17.206 26.702 18.4142 27.1294 19.6636 27.2328C23.6589 27.4259 27.0776 24.3716 27.3453 20.3589C27.5032 16.3393 24.4209 12.9333 20.4256 12.7058V12.6989Z" fill="currentColor"/>
</g>
</svg>
